<svg xmlns="http://www.w3.org/2000/svg" version="1.0" preserveAspectRatio="xMidYMid meet" viewBox="42 288.3 716 222.69">

<g transform="translate(0.000000,800.000000) scale(0.100000,-0.100000)" fill="#ffffff" stroke="none">
<path d="M4616 5105 c-127 -32 -259 -133 -318 -242 -150 -275 7 -632 308 -704 121 -29 339 -7 444 44 l45 22 3 73 c2 41 -1 72 -5 70 -4 -1 -38 -18 -74 -35 -210 -103 -447 -75 -559 67 -58 73 -75 125 -74 230 0 116 20 165 94 244 124 131 325 152 536 56 37 -16 68 -30 70 -30 2 0 4 31 4 70 0 81 4 77 -126 115 -112 33 -261 42 -348 20z"/>
<path d="M1480 4631 l0 -481 65 0 65 0 0 210 0 210 98 0 c191 0 282 38 337 140 56 104 33 257 -49 327 -71 60 -104 67 -318 71 l-198 4 0 -481z m354 348 c89 -25 127 -113 87 -203 -29 -67 -74 -85 -208 -86 l-103 0 0 150 0 150 93 0 c50 0 110 -5 131 -11z"/>
<path d="M2182 4758 l3 -353 26 -56 c15 -31 43 -73 64 -94 132 -131 415 -148 580 -35 57 39 91 84 117 156 20 55 22 81 26 397 l4 337 -71 0 -71 0 0 -310 c0 -188 -4 -329 -11 -361 -23 -107 -123 -172 -264 -172 -123 0 -209 46 -248 132 -20 43 -22 66 -25 379 l-4 332 -65 0 -64 0 3 -352z"/>
<path d="M3190 4730 l0 -381 63 3 62 3 5 263 5 263 315 -363 315 -363 58 -3 57 -3 0 481 0 480 -65 0 -65 0 -2 -367 -3 -367 -318 367 -318 367 -55 0 -54 0 0 -380z"/>
<path d="M5270 4630 l0 -480 65 0 65 0 0 210 0 210 270 0 270 0 0 -210 0 -210 65 0 65 0 0 365 0 365 -65 0 -65 0 0 -90 0 -90 -270 0 -270 0 0 205 0 205 -65 0 -65 0 0 -480z"/>
<path d="M705 4061 c-92 -25 -179 -91 -217 -165 -26 -51 -34 -148 -18 -214 15 -63 68 -127 137 -164 27 -15 114 -50 192 -77 79 -27 153 -59 167 -72 52 -48 37 -131 -30 -163 -44 -21 -164 -21 -214 0 -45 18 -97 67 -113 105 -6 16 -15 29 -20 29 -14 0 -169 -94 -169 -102 0 -23 46 -94 85 -133 81 -82 178 -116 325 -116 184 1 315 79 360 215 19 59 9 182 -20 234 -44 79 -98 111 -301 181 -187 65 -229 105 -195 186 41 97 225 84 299 -21 l31 -44 65 38 c116 65 107 56 91 89 -8 15 -42 55 -75 89 -77 78 -144 106 -265 110 -47 2 -98 -1 -115 -5z"/>
<path d="M2923 4056 c-28 -7 -77 -25 -110 -41 -76 -37 -200 -161 -236 -235 -78 -162 -76 -361 6 -513 63 -119 201 -228 331 -263 70 -19 229 -18 297 2 183 54 332 207 374 385 30 129 15 271 -42 389 -34 72 -159 196 -233 232 -113 56 -266 73 -387 44z m245 -201 c112 -34 201 -140 222 -266 26 -156 -43 -297 -182 -371 -37 -20 -58 -23 -148 -23 -95 0 -110 3 -156 27 -67 35 -138 115 -161 181 -39 113 -18 251 53 344 80 105 233 149 372 108z"/>
<path d="M6551 4049 c-90 -29 -172 -110 -196 -193 -22 -74 -16 -165 13 -222 42 -82 115 -128 302 -189 63 -21 131 -46 151 -57 l36 -20 84 48 c46 26 86 49 89 52 8 7 -62 62 -110 86 -25 13 -90 38 -145 56 -179 59 -225 90 -225 152 0 52 15 77 55 94 85 35 192 5 245 -68 17 -24 34 -43 38 -43 14 0 162 89 162 98 0 17 -59 94 -100 131 -69 62 -138 88 -244 93 -72 2 -104 -1 -155 -18z"/>
<path d="M1480 3950 l0 -100 383 2 382 3 3 98 3 97 -386 0 -385 0 0 -100z"/>
<path d="M3870 3531 l0 -521 105 0 105 0 0 180 0 180 78 0 78 0 104 -180 104 -180 109 0 c83 0 108 3 104 13 -2 6 -52 93 -111 192 l-106 180 23 15 c55 37 119 107 144 159 24 48 28 68 28 141 0 72 -4 93 -28 141 -32 67 -109 142 -175 172 -44 21 -65 22 -304 25 l-258 3 0 -520z m480 311 c104 -52 109 -210 8 -272 -28 -17 -51 -20 -155 -20 l-123 0 0 155 0 155 118 0 c91 0 125 -4 152 -18z"/>
<path d="M4940 3530 l0 -520 105 0 105 0 0 520 0 520 -105 0 -105 0 0 -520z"/>
<path d="M5420 3530 l0 -520 325 0 325 0 0 95 0 95 -220 0 -220 0 0 120 0 120 195 0 195 0 0 95 0 95 -195 0 -195 0 0 110 0 110 215 0 215 0 0 100 0 100 -320 0 -320 0 0 -520z"/>
<path d="M7409 3105 c-36 -19 -63 -78 -55 -120 7 -37 48 -83 83 -91 74 -19 143 35 143 113 0 38 -5 50 -34 79 -27 27 -42 34 -72 34 -22 -1 -51 -7 -65 -15z"/>
</g>
</svg>