<svg xmlns="http://www.w3.org/2000/svg" version="1.0" preserveAspectRatio="xMidYMid meet" viewBox="2.41 10.98 384.59 92.02">
<style type="text/css">
	
	.st1{fill:#0047AB;}
</style>
<g transform="translate(0.000000,129.000000) scale(0.100000,-0.100000)" fill="#ffffff" stroke="none">
<path class="st1"  d="M334 1164 c-21 -10 -49 -45 -90 -112 -83 -137 -82 -138 37 -340 l97 -162 36 61 c20 33 36 68 36 78 0 9 -25 59 -55 110 -30 51 -55 104 -55 118 0 13 16 48 35 78 l35 55 75 0 c75 0 76 0 93 -32 36 -67 54 -78 132 -78 38 0 70 3 70 8 0 22 -119 209 -140 219 -38 19 -266 17 -306 -3z"/>
<path  d="M1201 1166 c-180 -59 -166 -314 20 -356 35 -8 78 -10 113 -6 l56 7 0 41 c0 31 -3 39 -14 35 -102 -39 -198 7 -200 96 -1 54 24 94 72 114 33 14 52 13 116 -3 24 -6 26 -4 26 29 0 23 -6 37 -17 41 -37 15 -130 15 -172 2z"/>
<path  d="M1720 1145 c0 -35 0 -35 45 -35 45 0 45 0 45 35 0 35 0 35 -45 35 -45 0 -45 0 -45 -35z"/>
<path  d="M2678 1166 c-60 -22 -88 -45 -109 -89 -65 -143 27 -269 196 -269 40 0 86 3 104 7 l31 7 0 99 0 99 -75 0 -75 0 0 -29 c0 -25 4 -30 28 -33 23 -3 27 -8 30 -40 l3 -38 -45 0 c-111 0 -159 146 -67 207 28 18 128 25 169 10 20 -8 22 -6 22 31 0 36 -3 40 -31 46 -52 10 -141 6 -181 -8z"/>
<path  d="M3770 995 l0 -185 50 0 50 0 0 185 0 185 -50 0 -50 0 0 -185z"/>
<path  d="M3035 1083 c-61 -16 -95 -67 -95 -141 0 -83 60 -135 155 -135 74 0 95 9 95 42 0 27 0 27 -60 23 -48 -4 -65 -1 -80 13 -11 10 -20 22 -20 27 0 4 43 8 96 8 l97 0 -6 45 c-4 25 -14 57 -24 71 -28 43 -94 63 -158 47z m89 -75 c21 -30 12 -38 -45 -38 -53 0 -61 10 -32 42 22 24 59 23 77 -4z"/>
<path d="M3385 1078 c-11 -6 -25 -19 -32 -27 -11 -14 -12 -13 -13 7 0 19 -5 22 -42 22 l-43 0 3 -135 3 -135 45 0 44 0 0 80 c0 91 17 120 70 120 28 0 30 2 30 40 0 35 -3 40 -22 40 -13 0 -32 -6 -43 -12z"/>
<path d="M3525 1082 c-25 -6 -31 -13 -33 -41 -3 -27 0 -32 12 -28 45 17 87 19 111 3 38 -25 30 -36 -24 -36 -26 0 -62 -5 -80 -11 -62 -22 -78 -111 -26 -145 31 -20 99 -20 130 0 23 15 26 15 31 1 4 -10 19 -15 45 -15 l39 0 0 83 c0 102 -13 150 -46 172 -29 18 -113 28 -159 17z m115 -160 c0 -23 -34 -52 -61 -52 -33 0 -48 22 -29 45 13 15 90 21 90 7z"/>
<path d="M1458 1073 c-12 -3 -18 -14 -18 -33 l0 -28 60 5 c40 4 65 2 75 -7 26 -21 17 -27 -47 -33 -71 -6 -111 -31 -116 -72 -6 -49 7 -75 43 -91 47 -19 78 -18 108 6 30 24 37 25 37 5 0 -11 11 -15 40 -15 l40 0 0 95 c0 105 -11 140 -51 161 -26 13 -131 18 -171 7z m132 -158 c0 -19 -35 -55 -54 -55 -13 0 -46 25 -46 35 0 2 7 11 16 19 20 21 84 22 84 1z"/>
<path d="M1720 945 l0 -135 45 0 45 0 0 135 0 135 -45 0 -45 0 0 -135z"/>
<path d="M1884 1013 l44 -68 -37 -55 c-21 -30 -41 -61 -45 -67 -5 -10 6 -13 43 -13 48 0 51 2 75 41 l24 42 21 -42 c21 -41 22 -41 77 -41 l56 0 -17 28 c-10 15 -29 43 -42 62 -12 19 -23 40 -23 46 0 6 18 39 40 72 l40 62 -53 0 c-52 0 -53 0 -74 -42 l-20 -43 -22 43 c-21 42 -22 42 -76 42 l-55 0 44 -67z"/>
<path d="M2188 1073 c-12 -3 -18 -14 -18 -33 0 -29 0 -29 49 -23 60 7 101 -2 101 -22 0 -11 -11 -15 -37 -15 -57 0 -111 -18 -128 -43 -57 -81 49 -172 140 -119 28 17 35 18 35 7 0 -11 12 -15 43 -15 l42 0 -5 111 c-5 106 -6 112 -33 135 -24 21 -38 24 -100 23 -40 -1 -80 -3 -89 -6z m132 -163 c0 -11 -11 -27 -25 -36 -32 -21 -65 -10 -65 21 0 26 11 33 58 34 25 1 32 -3 32 -19z"/>
<path class="st1" d="M395 873 c10 -14 27 -42 38 -60 11 -19 31 -39 44 -44 13 -5 76 -9 139 -9 l114 0 30 -47 c46 -73 47 -86 8 -151 -32 -55 -36 -57 -78 -60 -78 -4 -86 -9 -124 -73 -20 -33 -36 -63 -36 -66 0 -2 59 -3 131 -1 153 4 135 -8 227 151 70 122 69 142 -3 264 -36 60 -66 98 -85 108 -23 12 -70 15 -226 15 l-196 0 17 -27z"/>
<path class="st1" d="M82 777 c-77 -132 -77 -135 -1 -269 85 -148 88 -150 251 -146 118 3 128 5 152 27 23 22 206 318 206 334 0 10 -115 9 -142 -2 -14 -5 -44 -45 -77 -100 -73 -122 -73 -123 -162 -119 l-74 3 -32 50 c-38 58 -41 86 -12 127 12 16 22 40 22 53 0 21 -62 135 -73 135 -3 0 -29 -42 -58 -93z"/>
<path  d="M3080 660 c0 -28 2 -30 40 -30 38 0 40 2 40 30 0 28 -2 30 -40 30 -38 0 -40 -2 -40 -30z"/>
<path  d="M1250 620 l0 -61 -31 17 c-41 21 -92 11 -118 -22 -71 -90 3 -227 104 -194 19 6 35 16 35 21 0 5 5 9 11 9 6 0 9 -7 5 -15 -4 -12 3 -15 34 -15 l40 0 0 160 0 160 -40 0 -40 0 0 -60z m-18 -107 c10 -9 18 -26 18 -37 0 -30 -27 -66 -50 -66 -21 0 -50 35 -50 60 0 23 29 60 47 60 9 0 25 -7 35 -17z"/>
<path  d="M1700 515 l0 -155 83 0 c103 0 145 12 182 50 24 26 30 40 33 94 8 123 -44 165 -205 166 l-93 0 0 -155z m187 71 c23 -20 28 -32 28 -71 0 -39 -5 -51 -28 -71 -18 -15 -41 -24 -63 -24 l-34 0 0 95 0 95 34 0 c22 0 45 -9 63 -24z"/>
<path  d="M3270 656 c-27 -8 -36 -17 -38 -38 -2 -20 -9 -28 -23 -28 -14 0 -19 -7 -19 -25 0 -18 5 -25 20 -25 17 0 20 -7 20 -49 0 -87 9 -112 48 -128 48 -20 92 -9 92 23 0 19 -5 24 -25 24 -29 0 -38 25 -33 86 3 34 6 39 31 42 21 3 27 9 27 27 0 18 -6 24 -27 27 -24 3 -29 9 -33 39 l-5 37 -35 -12z"/>
<path  d="M2090 582 c-21 -10 -42 -32 -54 -55 -48 -100 40 -190 164 -169 38 6 45 11 48 33 3 25 2 26 -52 21 -54 -4 -86 7 -86 29 0 5 37 9 81 9 l82 0 -7 41 c-9 53 -30 85 -68 98 -43 15 -68 14 -108 -7z m98 -59 c14 -23 14 -23 -37 -23 -53 0 -55 3 -28 38 15 19 47 11 65 -15z"/>
<path  d="M2403 588 c-13 -6 -23 -15 -23 -20 0 -4 -4 -8 -10 -8 -5 0 -10 7 -10 15 0 10 -11 15 -35 15 l-35 0 0 -165 0 -165 40 0 40 0 0 60 c0 33 2 60 3 60 2 0 17 -7 34 -15 70 -35 143 19 143 105 0 61 -16 97 -51 116 -33 16 -65 17 -96 2z m49 -65 c25 -23 24 -78 -3 -97 -55 -38 -107 46 -59 94 24 24 38 25 62 3z"/>
<path  d="M2665 593 c-83 -16 -118 -137 -58 -197 77 -77 220 -41 239 60 8 42 -15 98 -49 118 -14 9 -21 6 -37 -14 -13 -17 -16 -28 -8 -37 14 -17 13 -80 -2 -98 -16 -20 -55 -19 -74 1 -29 28 -14 114 19 114 10 0 15 10 15 30 0 30 -3 32 -45 23z"/>
<path  d="M2910 583 c-29 -15 -36 -24 -38 -54 -3 -41 12 -59 67 -74 22 -7 37 -18 39 -29 4 -17 -2 -18 -52 -14 -55 5 -56 4 -56 -22 0 -24 4 -28 43 -33 53 -7 118 7 134 29 17 23 17 65 1 87 -7 9 -33 23 -57 30 -25 7 -46 17 -48 23 -5 16 33 24 67 14 25 -7 29 -5 35 17 3 14 4 27 2 29 -2 3 -26 7 -53 10 -36 4 -58 0 -84 -13z"/>
<path  d="M3473 593 c-13 -2 -36 -18 -53 -34 -24 -25 -30 -39 -30 -74 0 -24 5 -55 11 -68 37 -81 201 -80 244 3 53 103 -41 198 -172 173z m88 -69 c7 -9 13 -31 13 -49 0 -39 -19 -65 -47 -65 -47 0 -73 62 -47 111 13 24 62 26 81 3z"/>
<path  d="M3720 587 c-14 -7 -31 -25 -39 -41 -12 -25 -11 -31 6 -55 11 -14 38 -31 59 -37 24 -7 40 -18 42 -29 4 -16 -2 -17 -52 -13 -55 5 -56 4 -56 -22 0 -24 5 -28 38 -33 84 -14 152 18 152 71 0 39 -11 50 -65 71 -27 10 -51 23 -53 29 -4 14 35 22 67 12 26 -7 30 -5 34 17 3 19 -1 26 -20 34 -34 13 -83 11 -113 -4z"/>
<path  d="M1414 576 c-42 -19 -64 -53 -64 -99 0 -79 50 -123 136 -121 58 1 74 10 74 38 0 23 -2 23 -38 14 -44 -11 -92 3 -92 27 0 12 15 15 76 15 l77 0 -6 42 c-10 77 -89 118 -163 84z m84 -48 c24 -24 13 -38 -28 -38 -26 0 -40 5 -40 13 0 18 21 37 40 37 9 0 21 -5 28 -12z"/>
<path  d="M3080 475 l0 -115 40 0 40 0 0 115 0 115 -40 0 -40 0 0 -115z"/>
</g>
</svg>