<?xml version="1.0" standalone="no"?>
<!DOCTYPE svg PUBLIC "-//W3C//DTD SVG 20010904//EN"
 "http://www.w3.org/TR/2001/REC-SVG-20010904/DTD/svg10.dtd">
<svg version="1.0" xmlns="http://www.w3.org/2000/svg"
 width="300.000000pt" height="95.000000pt" viewBox="0 0 300.000000 95.000000"
 preserveAspectRatio="xMidYMid meet">

<g transform="translate(0.000000,95.000000) scale(0.100000,-0.100000)"
fill="#ffffff" stroke="none">
<path d="M2420 921 c-135 -44 -227 -155 -253 -307 -14 -78 1 -181 36 -258 21
-46 23 -55 10 -60 -26 -10 -61 -6 -97 11 -32 15 -36 15 -60 -1 -14 -9 -26 -25
-26 -35 0 -29 49 -81 95 -102 48 -22 87 -24 148 -5 39 12 45 12 40 -1 -3 -8
-29 -28 -59 -44 -61 -35 -77 -51 -72 -75 7 -38 140 -44 209 -9 19 10 50 33 70
52 l36 34 17 -26 c10 -15 43 -38 73 -52 48 -22 65 -25 124 -20 65 5 129 28
129 46 0 13 -22 27 -52 35 -15 3 -40 17 -55 31 l-28 24 51 1 c94 0 255 105
228 148 -15 24 -61 27 -100 6 -31 -17 -35 -17 -68 -2 l-34 17 20 63 c30 90 30
242 0 318 -54 137 -154 213 -286 217 -39 1 -82 -1 -96 -6z m160 -39 c77 -32
138 -108 170 -211 26 -81 25 -166 -1 -270 -24 -93 -20 -105 40 -121 34 -9 80
-3 124 15 31 13 19 -21 -20 -55 -70 -62 -132 -74 -197 -39 -31 17 -44 19 -63
10 -12 -6 -23 -16 -23 -22 0 -22 78 -86 124 -104 56 -22 51 -35 -15 -35 -82 0
-123 26 -190 121 -22 32 -64 20 -78 -24 -6 -18 -27 -49 -47 -68 -32 -31 -40
-34 -97 -34 -50 0 -62 3 -65 17 -2 11 10 24 36 37 79 40 134 121 82 121 -11 0
-37 -9 -57 -20 -66 -35 -152 -18 -192 39 l-19 26 62 0 c47 0 70 5 99 23 l37
24 -19 31 c-77 126 -63 347 29 464 69 89 178 118 280 75z"/>
<path d="M1113 742 c-6 -4 -13 -27 -15 -51 -3 -40 -6 -45 -37 -56 -52 -17 -54
-40 -4 -32 l40 7 7 -46 c3 -26 6 -87 6 -136 0 -106 15 -150 61 -173 65 -34
140 4 180 90 23 49 25 101 4 109 -29 11 -65 -11 -65 -41 0 -34 -38 -113 -55
-113 -32 0 -40 33 -46 184 -4 84 -2 155 2 161 6 6 20 5 40 -2 31 -12 89 0 89
18 0 17 -54 31 -97 24 -40 -6 -43 -5 -43 17 0 40 -35 60 -67 40z"/>
<path d="M1535 731 c-59 -28 -83 -55 -101 -118 -33 -114 -2 -259 68 -318 80
-67 222 -25 269 80 22 48 24 171 5 225 -12 33 -11 37 16 68 15 18 26 37 23 43
-9 14 -38 11 -62 -6 -19 -13 -22 -13 -34 2 -36 43 -119 54 -184 24z m94 -47
c17 -14 31 -30 31 -35 0 -5 -31 -9 -70 -9 -38 0 -70 4 -70 8 0 19 49 61 72 62
3 0 20 -12 37 -26z m70 -121 c23 -83 9 -187 -31 -230 -67 -72 -153 23 -165
182 l-6 74 69 4 c38 1 81 4 96 5 23 2 28 -3 37 -35z"/>
<path d="M758 730 c-47 -14 -85 -48 -110 -98 -48 -99 -18 -302 54 -355 38 -29
125 -34 173 -12 43 21 83 77 92 129 5 33 4 36 -19 36 -33 0 -54 -18 -67 -61
-17 -54 -43 -74 -82 -63 -46 13 -68 49 -86 142 -13 68 -14 91 -4 136 23 104
85 127 151 56 36 -39 53 -46 84 -34 60 23 -63 137 -144 133 -8 0 -27 -4 -42
-9z"/>
<path d="M275 696 c-60 -28 -87 -56 -114 -116 -27 -58 -27 -139 -1 -223 31
-101 90 -138 194 -123 137 21 216 167 172 320 l-17 57 26 20 c14 11 25 25 25
30 0 12 -36 12 -60 -1 -13 -7 -21 -5 -31 6 -19 24 -85 54 -116 54 -15 0 -50
-11 -78 -24z m102 -48 c13 -12 23 -25 23 -30 0 -10 -124 -11 -133 -1 -12 12
36 53 62 53 13 0 35 -10 48 -22z m77 -198 c2 -117 -63 -195 -140 -170 -30 10
-41 22 -61 67 -26 57 -40 153 -29 198 7 26 9 27 59 22 29 -3 72 -3 97 1 43 7
46 7 59 -23 8 -16 15 -59 15 -95z"/>
<path d="M1374 239 c-59 -47 -88 -59 -142 -59 -36 0 -60 7 -94 29 -25 16 -49
34 -52 40 -15 24 -73 11 -131 -28 -108 -73 -193 -75 -291 -5 -57 41 -79 42
-130 7 -139 -96 -281 -95 -400 2 -47 39 -79 43 -98 12 -9 -16 -5 -24 29 -54
22 -20 65 -47 95 -62 48 -23 68 -26 155 -26 104 0 168 18 237 67 l27 19 53
-30 c74 -42 143 -55 210 -42 50 11 134 46 168 72 13 9 26 5 64 -19 96 -61 215
-59 308 5 l38 26 37 -25 c111 -72 246 -64 375 24 51 35 61 62 28 73 -14 5 -37
-4 -74 -29 -69 -46 -97 -56 -151 -56 -56 0 -79 9 -138 54 -26 20 -56 36 -66
36 -10 0 -36 -14 -57 -31z"/>
</g>
</svg>
