<svg xmlns="http://www.w3.org/2000/svg" viewBox="0 0 200 88.46"><defs><style>.cls-1{fill:#ffffff;}.cls-2{fill:#FF3131}</style></defs><title>logo-white</title><g id="Layer_2" data-name="Layer 2"><g id="content"><path class="cls-1" d="M0,40.8H2.2V56.65H0Z"/><path class="cls-1" d="M6.19,46.9l0-1.27H8.24l0,1.78a3.6,3.6,0,0,1,3.54-2c1,0,4,.38,4,3.75v7.49H13.7v-7a2.47,2.47,0,0,0-.6-1.89,2.82,2.82,0,0,0-2-.75c-1.49,0-2.88,1.08-2.88,3.3v6.34H6.19Z"/><path class="cls-1" d="M17.88,45.59h2V43.28l2.05-.65v3h2.47V47.1H21.89v6.61c0,.55,0,1.47,1.48,1.47a4.94,4.94,0,0,0,1-.11v1.6a9.92,9.92,0,0,1-1.72.13c-1.89,0-2.8-.55-2.8-2.35V47.1h-2Z"/><path class="cls-1" d="M28.9,51.51c0,2.28.9,4,3.17,4a2.41,2.41,0,0,0,2.6-2.28h2.07a3.8,3.8,0,0,1-1,2.31A4.79,4.79,0,0,1,32,57c-3.48,0-5.13-2.15-5.13-5.64,0-2.18.44-4,2.18-5.18a5.3,5.3,0,0,1,3-.81c5,0,4.84,4.36,4.8,6.16Zm5.83-1.45c0-1.05-.17-3.24-2.73-3.24a3,3,0,0,0-3,3.24Z"/><path class="cls-1" d="M39.26,47.87c0-.75,0-1.51-.1-2.24h2.09l0,2.13a3,3,0,0,1,2.64-2.17,6.75,6.75,0,0,1,1.44-.05v2a3,3,0,0,0-.4-.09,5.17,5.17,0,0,0-.6,0c-2.44,0-3,1.45-3,3.34v5.86h-2.1Z"/><path class="cls-1" d="M48.37,46.9l0-1.27h2.07l0,1.78a3.62,3.62,0,0,1,3.55-2c1,0,4,.38,4,3.75v7.49H55.88v-7a2.51,2.51,0,0,0-.59-1.89,2.83,2.83,0,0,0-2-.75c-1.5,0-2.89,1.08-2.89,3.3v6.34H48.37Z"/><path class="cls-1" d="M67.92,56.65a5.74,5.74,0,0,1-.2-1.65,3.59,3.59,0,0,1-3.42,2c-2.53,0-3.89-1.43-3.89-3.25a3.6,3.6,0,0,1,1.93-3.22,8.68,8.68,0,0,1,3.84-.73c.52,0,.85,0,1.49.07,0-1.36,0-2-.39-2.44a2.53,2.53,0,0,0-1.92-.72c-2.09,0-2.2,1.42-2.22,1.86H61.07a3.42,3.42,0,0,1,.77-2.08A5,5,0,0,1,65.4,45.3c1.61,0,3.33.51,3.93,1.63a3.25,3.25,0,0,1,.37,1.69l-.09,5.26a24.33,24.33,0,0,0,.18,2.77Zm-1.44-5.42c-.83,0-4,0-4,2.24,0,.7.44,1.91,2.29,1.91a2.63,2.63,0,0,0,2.35-1.19c.47-.75.49-1.36.53-2.9A10,10,0,0,0,66.48,51.23Z"/><path class="cls-1" d="M71.73,45.59h2V43.28l2-.65v3H78.2V47.1H75.73v6.61c0,.55,0,1.47,1.48,1.47a4.85,4.85,0,0,0,1-.11v1.6a9.83,9.83,0,0,1-1.72.13c-1.89,0-2.79-.55-2.79-2.35V47.1h-2Z"/><path class="cls-1" d="M80.85,40.85h2.49v2.26H80.85Zm.22,4.78h2.07v11H81.07Z"/><path class="cls-1" d="M91.82,45.35c4.43,0,5.42,3.46,5.42,5.77,0,3.22-1.83,5.9-5.59,5.9s-5.44-2.52-5.44-5.75C86.21,48.55,87.48,45.35,91.82,45.35Zm-.13,10.13c1.56,0,3.35-1.12,3.35-4.43,0-2.74-1.28-4.19-3.22-4.19-1.32,0-3.45.83-3.45,4.28C88.37,53.4,89.33,55.48,91.69,55.48Z"/><path class="cls-1" d="M99.52,46.9l0-1.27h2.07l0,1.78a3.62,3.62,0,0,1,3.55-2c1,0,4,.38,4,3.75v7.49H107v-7a2.51,2.51,0,0,0-.59-1.89,2.83,2.83,0,0,0-2-.75c-1.5,0-2.89,1.08-2.89,3.3v6.34H99.52Z"/><path class="cls-1" d="M119.65,56.65a6.11,6.11,0,0,1-.2-1.65A3.58,3.58,0,0,1,116,57c-2.54,0-3.9-1.43-3.9-3.25a3.61,3.61,0,0,1,1.94-3.22,8.64,8.64,0,0,1,3.83-.73c.53,0,.86,0,1.5.07,0-1.36,0-2-.4-2.44a2.53,2.53,0,0,0-1.92-.72c-2.09,0-2.2,1.42-2.22,1.86H112.8a3.49,3.49,0,0,1,.77-2.08,5,5,0,0,1,3.57-1.19c1.61,0,3.32.51,3.92,1.63a3.25,3.25,0,0,1,.37,1.69l-.08,5.26a26.06,26.06,0,0,0,.17,2.77Zm-1.43-5.42c-.84,0-4,0-4,2.24,0,.7.44,1.91,2.29,1.91a2.66,2.66,0,0,0,2.36-1.19c.46-.75.48-1.36.53-2.9A10.24,10.24,0,0,0,118.22,51.23Z"/><path class="cls-1" d="M125.2,40.83h2.07V56.65H125.2Z"/><path class="cls-1" d="M80.62,72.66c-.09-.55-.38-2.74-3.44-2.74-3.83,0-4.51,3.9-4.51,6.53,0,3,.86,6.21,4.49,6.21a3.48,3.48,0,0,0,2.58-.94,3.13,3.13,0,0,0,.77-1.67h2.42c-.33,3.12-3.22,4.41-6,4.41-5.59,0-6.67-4.91-6.67-8,0-3.34,1.3-8.32,7-8.32,2.25,0,5.42.9,5.7,4.5Z"/><path class="cls-1" d="M90.53,72.92c4.42,0,5.41,3.47,5.41,5.77,0,3.23-1.82,5.9-5.59,5.9s-5.44-2.52-5.44-5.74C84.91,76.12,86.19,72.92,90.53,72.92Zm-.14,10.14c1.57,0,3.35-1.12,3.35-4.43,0-2.75-1.27-4.2-3.21-4.2-1.32,0-3.46.84-3.46,4.28C87.07,81,88,83.06,90.39,83.06Z"/><path class="cls-1" d="M99.05,75.44c0-.74,0-1.51-.11-2.23H101l0,2.12a3,3,0,0,1,2.65-2.17,7.24,7.24,0,0,1,1.43,0v2a1.39,1.39,0,0,0-.4-.09,5,5,0,0,0-.59,0c-2.45,0-3,1.45-3,3.33v5.86H99.05Z"/><path class="cls-1" d="M107.68,75c0-.49,0-.75-.06-1.8h2.09l0,1.82a4.29,4.29,0,0,1,3.77-2c2.38,0,4.64,1.62,4.64,5.71s-2.4,5.9-5,5.9A3.81,3.81,0,0,1,109.73,83v5.47h-2Zm5.09,8.11a2.82,2.82,0,0,0,2.33-1.07A6.12,6.12,0,0,0,116,78.6c0-2-.6-4-3-4-3.31,0-3.31,3.48-3.31,4.47C109.66,80.38,109.86,83.12,112.77,83.12Z"/><path class="cls-1" d="M126,72.92c4.43,0,5.42,3.47,5.42,5.77,0,3.23-1.83,5.9-5.59,5.9s-5.44-2.52-5.44-5.74C120.39,76.12,121.66,72.92,126,72.92Zm-.13,10.14c1.56,0,3.35-1.12,3.35-4.43,0-2.75-1.28-4.2-3.22-4.2-1.32,0-3.45.84-3.45,4.28C122.55,81,123.51,83.06,125.87,83.06Z"/><path class="cls-1" d="M134.57,75.44c0-.74,0-1.51-.11-2.23h2.09l0,2.12a3,3,0,0,1,2.64-2.17,7.25,7.25,0,0,1,1.43,0v2a1.4,1.4,0,0,0-.39-.09,5.26,5.26,0,0,0-.6,0c-2.44,0-3,1.45-3,3.33v5.86h-2.09Z"/><path class="cls-1" d="M150,84.22a6,6,0,0,1-.2-1.64,3.56,3.56,0,0,1-3.41,2c-2.53,0-3.9-1.42-3.9-3.24a3.63,3.63,0,0,1,1.94-3.23,8.62,8.62,0,0,1,3.83-.72c.53,0,.86,0,1.5.06,0-1.36,0-2-.4-2.43a2.52,2.52,0,0,0-1.91-.73c-2.09,0-2.2,1.43-2.23,1.87h-2.07a3.56,3.56,0,0,1,.78-2.09,5,5,0,0,1,3.56-1.18c1.61,0,3.33.5,3.92,1.62a3.29,3.29,0,0,1,.38,1.69l-.09,5.27a24.32,24.32,0,0,0,.18,2.76Zm-1.43-5.42c-.84,0-4,0-4,2.24,0,.7.44,1.91,2.29,1.91a2.64,2.64,0,0,0,2.35-1.19c.46-.74.49-1.36.53-2.89A8.1,8.1,0,0,0,148.53,78.8Z"/><path class="cls-1" d="M153.77,73.16h2v-2.3l2.05-.66v3h2.47v1.52h-2.47v6.6c0,.55,0,1.47,1.48,1.47a4.29,4.29,0,0,0,1-.11v1.6a9.72,9.72,0,0,1-1.72.14c-1.89,0-2.8-.55-2.8-2.35V74.68h-2Z"/><path class="cls-1" d="M163.16,68.42h2.49v2.26h-2.49Zm.22,4.79h2.07v11h-2.07Z"/><path class="cls-1" d="M174,72.92c4.43,0,5.42,3.47,5.42,5.77,0,3.23-1.83,5.9-5.59,5.9s-5.44-2.52-5.44-5.74C168.39,76.12,169.67,72.92,174,72.92Zm-.13,10.14c1.57,0,3.35-1.12,3.35-4.43,0-2.75-1.28-4.2-3.22-4.2-1.32,0-3.45.84-3.45,4.28C170.55,81,171.51,83.06,173.87,83.06Z"/><path class="cls-1" d="M182.44,74.48l0-1.27h2.07l0,1.77a3.63,3.63,0,0,1,3.55-2c1,0,4,.37,4,3.75v7.48H190v-7a2.48,2.48,0,0,0-.59-1.89,2.87,2.87,0,0,0-2-.74c-1.5,0-2.89,1.07-2.89,3.29v6.34h-2.07Z"/><path class="cls-2" d="M149.61,43.71h-1.94v4.18h2c1.08,0,2.83,0,2.83-2.13C152.47,43.82,150.9,43.71,149.61,43.71Z"/><path class="cls-2" d="M163.71,47.59c-1.84,0-2.19,1.87-2.19,3.52a5.54,5.54,0,0,0,.53,2.62,1.72,1.72,0,0,0,1.62.88c1.81,0,2.16-2,2.16-3.5C165.83,49.19,165.37,47.59,163.71,47.59Z"/><path class="cls-2" d="M135.29,0V64.48H200V0Zm19.28,50.23a9.19,9.19,0,0,1-4,.68l-2.87,0v5.73h-4.44V40.76h7.33a7.78,7.78,0,0,1,4.16.81A4.77,4.77,0,0,1,157,45.89,4.74,4.74,0,0,1,154.57,50.23Zm13.94,5.11a6.17,6.17,0,0,1-4.58,1.58c-2.45,0-4.05-.59-5.13-1.62a5.66,5.66,0,0,1-1.59-4.21c0-3.39,2.1-5.86,6.5-5.86,3.6,0,6.41,1.81,6.41,5.73A6.15,6.15,0,0,1,168.51,55.34Zm8.3,1.63c-2.25,0-5.5-.33-5.46-3.9h4.11a2.28,2.28,0,0,0,.18,1,1.22,1.22,0,0,0,1.22.68,1.12,1.12,0,0,0,1.26-1.12c0-.77-.64-1-1.57-1.23l-2.26-.64a3.11,3.11,0,0,1-2.69-3,3,3,0,0,1,1.32-2.51,6.79,6.79,0,0,1,3.94-1c2.38,0,4.88.64,5.06,3.73H178a2.69,2.69,0,0,0-.15-1.08,1.13,1.13,0,0,0-1.15-.6c-.64,0-1.24.29-1.24,1s.47.88,1.13,1.06l3,.81a3,3,0,0,1,2.61,3C182.14,57,177.79,57,176.81,57Zm15.28-8.68h-2.68v3.83c0,1.37,0,2,1.62,2a6.17,6.17,0,0,0,1-.07v2.6a15.18,15.18,0,0,1-2.7.2c-3.32,0-4-1.1-4-3.24V48.29h-2.1V45.65h2.17V43.93l4-1.59v3.31h2.63Z"/></g></g></svg>